HIERARCHY
ROOT joint_Root
{
	OFFSET 0.0 0.0 0.0
	CHANNELS 6 Xposition Yposition Zposition Zrotation Xrotation Yrotation 
	JOINT Hips
	{
		OFFSET -0.726466 93.3139 -2.00062
		CHANNELS 6 Xposition Yposition Zposition Zrotation Xrotation Yrotation 
		JOINT Spine
		{
			OFFSET 15.7357 0.0 0.0
			CHANNELS 6 Xposition Yposition Zposition Zrotation Xrotation Yrotation 
			JOINT Chest
			{
				OFFSET 8.98455 -0.406207 0.0
				CHANNELS 6 Xposition Yposition Zposition Zrotation Xrotation Yrotation 
				JOINT Neck
				{
					OFFSET 16.3773 0.0 0.0
					CHANNELS 6 Xposition Yposition Zposition Zrotation Xrotation Yrotation 
					JOINT Head
					{
						OFFSET 6.45672 0.0 0.0
						CHANNELS 6 Xposition Yposition Zposition Zrotation Xrotation Yrotation 
						End Site
						{
							OFFSET 0.0 0.0 0.0
						}
					}
				}
				JOINT Shoulder_L
				{
					OFFSET 12.9942 -0.242716 4.98039
					CHANNELS 6 Xposition Yposition Zposition Zrotation Xrotation Yrotation 
					JOINT UpperArm_L
					{
						OFFSET 5.34809 0.0 0.0
						CHANNELS 6 Xposition Yposition Zposition Zrotation Xrotation Yrotation 
						JOINT LowerArm_L
						{
							OFFSET 24.3286 1.87007e-05 0.0
							CHANNELS 6 Xposition Yposition Zposition Zrotation Xrotation Yrotation 
							JOINT Hand_L
							{
								OFFSET 22.2916 0.0 0.0
								CHANNELS 6 Xposition Yposition Zposition Zrotation Xrotation Yrotation 
								End Site
								{
									OFFSET 0.0 0.0 0.0
								}
							}
						}
					}
				}
				JOINT Shoulder_R
				{
					OFFSET 12.9945 -0.242716 -4.98039
					CHANNELS 6 Xposition Yposition Zposition Zrotation Xrotation Yrotation 
					JOINT UpperArm_R
					{
						OFFSET -5.34813 0.0 0.0
						CHANNELS 6 Xposition Yposition Zposition Zrotation Xrotation Yrotation 
						JOINT LowerArm_R
						{
							OFFSET -24.3289 0.000322201 0.0
							CHANNELS 6 Xposition Yposition Zposition Zrotation Xrotation Yrotation 
							JOINT Hand_R
							{
								OFFSET -22.2915 -0.000108084 0.0
								CHANNELS 6 Xposition Yposition Zposition Zrotation Xrotation Yrotation 
								End Site
								{
									OFFSET 0.0 0.0 0.0
								}
							}
						}
					}
				}
			}
		}
		JOINT UpperLeg_L
		{
			OFFSET -2.19248 -6.46944 0.0
			CHANNELS 6 Xposition Yposition Zposition Zrotation Xrotation Yrotation 
			JOINT LowerLeg_L
			{
				OFFSET 39.0811 0.0 -1.23785e-05
				CHANNELS 6 Xposition Yposition Zposition Zrotation Xrotation Yrotation 
				JOINT Foot_L
				{
					OFFSET 40.9854 0.0 -1.26872e-05
					CHANNELS 6 Xposition Yposition Zposition Zrotation Xrotation Yrotation 
					JOINT Toes_L
					{
						OFFSET 11.7543 0.0 0.0
						CHANNELS 6 Xposition Yposition Zposition Zrotation Xrotation Yrotation 
						End Site
						{
							OFFSET 0.0 0.0 0.0
						}
					}
				}
			}
		}
		JOINT UpperLeg_R
		{
			OFFSET -2.19251 6.46944 0.0
			CHANNELS 6 Xposition Yposition Zposition Zrotation Xrotation Yrotation 
			JOINT LowerLeg_R
			{
				OFFSET -39.0811 -0.00228153 -0.0401928
				CHANNELS 6 Xposition Yposition Zposition Zrotation Xrotation Yrotation 
				JOINT Foot_R
				{
					OFFSET -40.9854 0.0 0.0
					CHANNELS 6 Xposition Yposition Zposition Zrotation Xrotation Yrotation 
					JOINT Toes_R
					{
						OFFSET -11.7543 0.0 0.0
						CHANNELS 6 Xposition Yposition Zposition Zrotation Xrotation Yrotation 
						End Site
						{
							OFFSET 0.0 0.0 0.0
						}
					}
				}
			}
		}
	}
}
MOTION
Frames:	7
Frame Time:	0.0333333
0.000000 0.000000 0.000000 0.000000 0.000000 -0.000000 -0.985553 92.221200 -0.481848 88.239700 -0.266401 4.782270 15.735700 0.000005 -0.000001 79.099300 85.590800 -78.003200 8.984550 -0.406207 -0.000000 0.911331 -1.732530 2.204450 16.377300 -0.000001 -0.000001 4.816560 -1.876030 -2.915390 6.456720 -0.000001 -0.000000 2.984940 -1.022000 1.037530 12.994200 -0.242716 4.980390 -88.053700 -5.569430 -70.702400 5.348090 -0.000007 -0.000001 -43.725000 -26.074900 -69.361900 24.328600 0.000019 0.000005 33.176400 -0.450338 -90.687600 22.291600 -0.000001 0.000005 44.175200 5.670030 -17.295800 12.994500 -0.242716 -4.980390 87.869700 6.158710 -70.877500 -5.348130 -0.000001 -0.000004 -66.954100 33.561800 -11.399800 -24.328900 0.000322 -0.000009 1.738650 6.895260 -14.197400 -22.291500 -0.000108 -0.000004 10.190700 5.325330 -0.649556 -2.192480 -6.469440 -0.000000 -175.376000 -6.474430 -1.955940 39.081100 -0.000007 -0.000012 -0.113883 0.266314 23.153000 40.985400 -0.000006 -0.000013 -0.326856 3.809600 -66.613000 11.754300 -0.000000 0.000003 -0.000049 -0.000554 -16.599100 -2.192510 6.469440 -0.000001 179.183000 13.915300 -179.593000 -39.081100 -0.002282 -0.040193 -0.072118 0.206914 20.031400 -40.985400 0.000008 0.000006 2.370310 7.829010 -65.953000 -11.754300 -0.000006 -0.000006 -0.007061 -0.080182 -19.837300
0.000000 0.000000 0.000000 0.000000 0.000000 -0.000000 -0.968280 92.212000 -0.482825 88.217800 -0.412189 4.739990 15.735700 0.000005 -0.000001 78.144900 85.584300 -76.982200 8.984550 -0.406207 -0.000000 0.897877 -1.883290 2.338470 16.377300 -0.000001 -0.000001 4.681500 -1.859820 -2.963640 6.456720 -0.000001 -0.000000 2.948710 -0.816199 0.890053 12.994200 -0.242716 4.980390 -88.133500 -5.430700 -71.000300 5.348090 -0.000007 -0.000001 -41.645800 -25.757300 -67.774100 24.328600 0.000019 0.000005 34.750000 -0.775506 -91.117700 22.291600 -0.000001 0.000005 46.100300 5.678750 -19.143000 12.994500 -0.242716 -4.980390 87.852100 6.183680 -70.802400 -5.348130 -0.000001 -0.000004 -66.501200 33.558100 -12.016800 -24.328900 0.000322 -0.000009 1.701040 6.586940 -14.523100 -22.291500 -0.000108 -0.000004 10.189600 5.324500 -0.625734 -2.192480 -6.469440 -0.000000 -175.366000 -6.555760 -2.025890 39.081100 -0.000007 -0.000012 -0.116087 0.270379 23.236300 40.985400 -0.000006 -0.000013 -0.330749 3.728050 -66.659500 11.754300 -0.000000 0.000003 -0.000035 -0.000419 -16.593900 -2.192510 6.469440 -0.000001 179.188000 13.796800 -179.666000 -39.081100 -0.002282 -0.040193 -0.077491 0.221300 20.060800 -40.985400 0.000008 0.000006 2.203160 7.890790 -65.924800 -11.754300 -0.000006 -0.000006 -0.007060 -0.080175 -19.837000
0.000000 0.000000 0.000000 0.000000 0.000000 -0.000000 -0.933638 92.223000 -0.514859 88.229500 -0.850301 4.712880 15.735700 0.000005 -0.000001 77.586600 85.553400 -76.369100 8.984550 -0.406207 -0.000000 0.942282 -1.983450 2.449570 16.377300 -0.000001 -0.000001 4.555070 -1.907610 -2.925250 6.456720 -0.000001 -0.000000 2.752880 -0.744856 0.856461 12.994200 -0.242716 4.980390 -88.183900 -5.333800 -71.165200 5.348090 -0.000007 -0.000001 -42.811400 -26.289400 -66.967100 24.328600 0.000019 0.000005 33.290100 -0.395201 -90.601500 22.291600 -0.000001 0.000005 46.139100 5.678790 -19.146700 12.994500 -0.242716 -4.980390 87.819800 6.247440 -70.718000 -5.348130 -0.000001 -0.000004 -66.089100 33.488600 -12.589400 -24.328900 0.000322 -0.000009 1.689160 6.138460 -15.427400 -22.291500 -0.000108 -0.000004 10.166300 5.326130 -0.673012 -2.192480 -6.469440 -0.000000 -175.406000 -6.719800 -1.959720 39.081100 -0.000007 -0.000012 -0.114628 0.268209 23.141100 40.985400 -0.000006 -0.000013 -0.366832 3.464730 -66.632300 11.754300 -0.000000 0.000003 -0.000039 -0.000455 -16.595300 -2.192510 6.469440 -0.000001 179.174000 13.534800 -179.741000 -39.081100 -0.002282 -0.040193 -0.077811 0.222495 20.034300 -40.985400 0.000008 0.000006 2.167570 8.067380 -65.846000 -11.754300 -0.000006 -0.000006 -0.006817 -0.078084 -19.751700
0.000000 0.000000 0.000000 0.000000 0.000000 -0.000000 -0.928075 92.229600 -0.565722 88.170600 -1.469660 4.557040 15.735700 0.000005 -0.000001 77.361100 85.572700 -76.060400 8.984550 -0.406207 -0.000000 0.898850 -2.014610 2.615350 16.377300 -0.000001 -0.000001 4.460170 -2.004670 -2.722450 6.456720 -0.000001 -0.000000 2.602240 -0.818789 0.781045 12.994200 -0.242716 4.980390 -88.185400 -5.342650 -71.209100 5.348090 -0.000007 -0.000001 -47.051000 -27.659600 -67.176900 24.328600 0.000019 0.000005 31.180300 0.634490 -88.949900 22.291600 -0.000001 0.000005 45.082900 5.673510 -17.931900 12.994500 -0.242716 -4.980390 87.788800 6.290590 -70.588000 -5.348130 -0.000001 -0.000004 -65.640600 33.629700 -13.057800 -24.328900 0.000322 -0.000009 1.698980 5.640750 -16.802500 -22.291500 -0.000108 -0.000004 10.188000 5.328700 -0.747671 -2.192480 -6.469440 -0.000000 -175.339000 -7.144890 -2.051450 39.081100 -0.000007 -0.000012 -0.115069 0.269372 23.131100 40.985400 -0.000006 -0.000013 -0.400410 3.305800 -66.642300 11.754300 -0.000000 0.000003 -0.000039 -0.000454 -16.595300 -2.192510 6.469440 -0.000001 179.297000 13.140600 -179.983000 -39.081100 -0.002282 -0.040193 -0.078361 0.224293 20.010500 -40.985400 0.000008 0.000006 2.145450 8.293330 -65.738500 -11.754300 -0.000006 -0.000006 -0.006930 -0.079058 -19.791500
0.000000 0.000000 0.000000 0.000000 0.000000 -0.000000 -0.941092 92.250800 -0.608944 88.088800 -2.125430 4.361730 15.735700 0.000005 -0.000001 77.107700 85.599100 -75.713400 8.984550 -0.406207 -0.000000 0.841116 -2.047350 2.801730 16.377300 -0.000001 -0.000001 4.391820 -2.129300 -2.558200 6.456720 -0.000001 -0.000000 2.537150 -0.946110 0.820505 12.994200 -0.242716 4.980390 -88.147900 -5.461340 -71.233800 5.348090 -0.000007 -0.000001 -53.371300 -29.763500 -68.392200 24.328600 0.000019 0.000005 27.578800 1.947600 -86.273300 22.291600 -0.000001 0.000005 43.837700 5.663080 -16.406800 12.994500 -0.242716 -4.980390 87.780000 6.304050 -70.554800 -5.348130 -0.000001 -0.000004 -65.182100 33.971700 -13.425700 -24.328900 0.000322 -0.000009 1.680890 5.081310 -18.343000 -22.291500 -0.000108 -0.000004 10.153700 5.332350 -0.854177 -2.192480 -6.469440 -0.000000 -175.255000 -7.552860 -2.134390 39.081100 -0.000007 -0.000012 -0.115405 0.271436 23.033500 40.985400 -0.000006 -0.000013 -0.468426 3.042220 -66.607600 11.754300 -0.000000 0.000003 -0.000044 -0.000507 -16.597300 -2.192510 6.469440 -0.000001 179.470000 12.786900 179.792000 -39.081100 -0.002282 -0.040193 -0.075197 0.217113 19.882400 -40.985400 0.000008 0.000006 2.278810 8.568360 -65.608100 -11.754300 -0.000006 -0.000006 -0.006918 -0.078955 -19.787200
0.000000 0.000000 0.000000 0.000000 0.000000 -0.000000 -0.971194 92.266100 -0.643688 88.025700 -2.849690 4.199470 15.735700 0.000005 -0.000001 77.065700 85.615600 -75.582600 8.984550 -0.406207 -0.000000 0.809379 -2.052060 2.978670 16.377300 -0.000001 -0.000001 4.389640 -2.258130 -2.376230 6.456720 -0.000001 -0.000000 2.496940 -1.103280 0.860917 12.994200 -0.242716 4.980390 -88.082900 -5.619590 -71.128100 5.348090 -0.000007 -0.000001 -61.065300 -32.080200 -70.869400 24.328600 0.000019 0.000005 22.312000 3.043940 -82.618100 22.291600 -0.000001 0.000005 43.305100 5.644420 -14.485600 12.994500 -0.242716 -4.980390 87.742900 6.383220 -70.479700 -5.348130 -0.000001 -0.000004 -64.661800 34.365600 -13.853800 -24.328900 0.000322 -0.000009 1.654870 4.650020 -19.627600 -22.291500 -0.000108 -0.000004 10.122300 5.334200 -0.908378 -2.192480 -6.469440 -0.000000 -175.167000 -7.983370 -2.153020 39.081100 -0.000007 -0.000012 -0.115153 0.272144 22.934800 40.985400 -0.000006 -0.000013 -0.543501 2.818780 -66.597000 11.754300 -0.000000 0.000003 -0.000044 -0.000506 -16.597200 -2.192510 6.469440 -0.000001 179.593000 12.450600 179.598000 -39.081100 -0.002282 -0.040193 -0.074851 0.217378 19.779400 -40.985400 0.000008 0.000006 2.308000 8.944310 -65.478100 -11.754300 -0.000006 -0.000006 -0.007034 -0.079953 -19.828000
0.000000 0.000000 0.000000 0.000000 0.000000 -0.000000 -1.006320 92.277400 -0.671166 87.957000 -3.521530 4.054220 15.735700 0.000005 -0.000001 77.266500 85.636800 -75.706100 8.984550 -0.406207 -0.000000 0.775784 -2.017890 3.132280 16.377300 -0.000001 -0.000001 4.486630 -2.360450 -2.185150 6.456720 -0.000001 -0.000000 2.479500 -1.335580 0.959904 12.994200 -0.242716 4.980390 -87.995200 -5.837100 -71.006800 5.348090 -0.000007 -0.000001 -69.912500 -34.035900 -74.728900 24.328600 0.000019 0.000005 14.279500 3.035660 -78.224000 22.291600 -0.000001 0.000005 42.480800 5.620920 -12.680900 12.994500 -0.242716 -4.980390 87.711300 6.446140 -70.405000 -5.348130 -0.000001 -0.000004 -64.278900 34.627700 -14.178100 -24.328900 0.000322 -0.000009 1.694590 4.540840 -20.501900 -22.291500 -0.000108 -0.000004 10.047400 5.335570 -0.948605 -2.192480 -6.469440 -0.000000 -175.087000 -8.304660 -2.184280 39.081100 -0.000007 -0.000012 -0.116441 0.276011 22.873500 40.985400 -0.000006 -0.000013 -0.654610 2.446040 -66.596500 11.754300 -0.000000 0.000003 -0.000045 -0.000518 -16.597700 -2.192510 6.469440 -0.000001 179.747000 12.034100 179.413000 -39.081100 -0.002282 -0.040193 -0.073587 0.214741 19.704900 -40.985400 0.000008 0.000006 2.364710 9.183590 -65.373900 -11.754300 -0.000006 -0.000006 -0.007157 -0.081007 -19.871000
